<?xml version="1.0" encoding="UTF-8" standalone="no"?>
<!DOCTYPE svg PUBLIC "-//W3C//DTD SVG 1.1//EN"
 "http://www.w3.org/Graphics/SVG/1.1/DTD/svg11.dtd">
<!-- Generated by graphviz version 2.38.0 (20140413.2041)
 -->
<!-- Title: graphname Pages: 1 -->
<svg width="89pt" height="260pt"
 viewBox="0.00 0.00 89.00 260.00" xmlns="http://www.w3.org/2000/svg" xmlns:xlink="http://www.w3.org/1999/xlink">
<g id="graph0" class="graph" transform="scale(1 1) rotate(0) translate(4 256)">
<title>graphname</title>
<polygon fill="white" stroke="none" points="-4,4 -4,-256 85,-256 85,4 -4,4"/>
<!-- A -->
<g id="node1" class="node"><title>A</title>
<ellipse fill="none" stroke="black" cx="54" cy="-234" rx="27" ry="18"/>
<text text-anchor="middle" x="54" y="-229.8" font-family="Times,serif" font-size="14.00">A</text>
</g>
<!-- B -->
<g id="node2" class="node"><title>B</title>
<ellipse fill="none" stroke="black" cx="54" cy="-162" rx="27" ry="18"/>
<text text-anchor="middle" x="54" y="-157.8" font-family="Times,serif" font-size="14.00">B</text>
</g>
<!-- A&#45;&gt;B -->
<g id="edge1" class="edge"><title>A&#45;&gt;B</title>
<path fill="none" stroke="black" d="M54,-207.64C54,-202.063 54,-196.132 54,-190.476"/>
<ellipse fill="none" stroke="black" cx="54" cy="-211.697" rx="4" ry="4"/>
<polygon fill="black" stroke="black" points="57.5001,-190.104 54,-180.104 50.5001,-190.104 57.5001,-190.104"/>
</g>
<!-- C -->
<g id="node3" class="node"><title>C</title>
<ellipse fill="none" stroke="black" cx="27" cy="-90" rx="27" ry="18"/>
<text text-anchor="middle" x="27" y="-85.8" font-family="Times,serif" font-size="14.00">C</text>
</g>
<!-- B&#45;&gt;C -->
<g id="edge2" class="edge"><title>B&#45;&gt;C</title>
<path fill="none" stroke="black" d="M47.6014,-144.411C44.4864,-136.335 40.6663,-126.431 37.1654,-117.355"/>
<polygon fill="black" stroke="black" points="40.4045,-116.027 33.5403,-107.956 33.8735,-118.546 40.4045,-116.027"/>
</g>
<!-- D -->
<g id="node4" class="node"><title>D</title>
<ellipse fill="none" stroke="black" cx="54" cy="-18" rx="27" ry="18"/>
<text text-anchor="middle" x="54" y="-13.8" font-family="Times,serif" font-size="14.00">D</text>
</g>
<!-- B&#45;&gt;D -->
<g id="edge3" class="edge"><title>B&#45;&gt;D</title>
<path fill="none" stroke="black" d="M59.4884,-133.988C60.9311,-125.688 62.2834,-116.501 63,-108 64.3441,-92.0566 64.3441,-87.9434 63,-72 62.2276,-62.8379 60.7169,-52.8786 59.1504,-44.0925"/>
<polygon fill="black" stroke="black" points="56.0309,-133.438 57.6538,-143.908 62.9142,-134.711 56.0309,-133.438"/>
<ellipse fill="none" stroke="black" cx="58.3894" cy="-40.0243" rx="4.00001" ry="4.00001"/>
</g>
<!-- C&#45;&gt;D -->
<g id="edge4" class="edge"><title>C&#45;&gt;D</title>
<path fill="none" stroke="black" d="M37.007,-63.056C40.498,-54.0051 44.3237,-44.0866 47.4597,-35.9562"/>
<polygon fill="black" stroke="black" points="33.7319,-61.8214 33.3986,-72.411 40.2629,-64.3405 33.7319,-61.8214"/>
</g>
</g>
</svg>

